<svg xmlns="http://www.w3.org/2000/svg" viewBox="0 0 1265 550"><style>.qs-vs-belowIconbar,.qs-vs-iconbar{fill-rule:evenodd;stroke:none}.qs-vs-iconbar{fill:var(--vscode-tab-inactiveBackground)}.qs-vs-belowIconbar{fill:var(--vscode-breadcrumb-background)}.qs-dropdown-background{fill:var(--vscode-dropdown-background);stroke:none}.qs-vs-icon{stroke:var(--vscode-icon-foreground);stroke-width:6;fill:none}.qs-vs-dropdown-arrow{stroke-width:3}.qs-vs-dots{fill:var(--vscode-icon-foreground);stroke:none}.qs-menu-box{fill:var(--vscode-menu-background);stroke:var(--vscode-menu-border);stroke-width:6;box-shadow:0 2px 8px var(--vscode-widget-shadow)}.qs-menu-selected{fill:var(--vscode-menu-selectionBackground);stroke:none}.qs-menu-text{font-family:-apple-system,BlinkMacSystemFont,&quot;Segoe WPC&quot;,&quot;Segoe UI&quot;,system-ui,Ubuntu,&quot;Droid Sans&quot;,sans-serif;font-size:79px;fill:var(--vscode-menu-foreground)}.qs-menu-textSelected{fill:var(--vscode-menu-selectionForeground, var(--vscode-menu-foreground))}</style><rect width="1265" height="242" x="0" y="0" class="qs-vs-iconbar"/><rect width="1265" height="242" x="0" y="241" class="qs-vs-belowIconbar"/><rect width="110" height="145" x="745" y="48" class="qs-dropdown-background" rx="30"/><path d="M 774 112 L 800 138 L 824 114" class="qs-vs-icon qs-vs-dropdown-arrow"/><path d="M 667 121 L 668 70 L 737 115 L 694 144" class="qs-vs-icon"/><path d="M 639 142 L 630 133" class="qs-vs-icon"/><path d="M 672 141 L 683 133" class="qs-vs-icon"/><path d="M 639 157 L 628 157" class="qs-vs-icon"/><path d="M 674 157 L 684 157" class="qs-vs-icon"/><path d="M 671 169 L 683 179" class="qs-vs-icon"/><path d="M 640 170 L 630 179" class="qs-vs-icon"/><path d="M 639 145 L 673 145" class="qs-vs-icon"/><ellipse cx="656" cy="155" class="qs-vs-icon" rx="17" ry="28"/><rect width="90" height="90" x="925" y="77" class="qs-vs-icon" rx="10"/><path d="M 970 166 L 970 77" class="qs-vs-icon"/><circle cx="1118" cy="125" r="8" class="qs-vs-dots"/><circle cx="1154" cy="125" r="8" class="qs-vs-dots"/><circle cx="1190" cy="125" r="8" class="qs-vs-dots"/><rect width="674" height="320" x="179" y="198" class="qs-menu-box" rx="30"/><rect width="620" height="130" x="205" y="360" class="qs-menu-selected" rx="28"/><text x="263" y="323" class="qs-menu-text" xml:space="preserve">Run Q# File</text><text x="263" y="457" class="qs-menu-text qs-menu-textSelected" xml:space="preserve">Debug Q# File</text></svg>