<svg xmlns="http://www.w3.org/2000/svg" width="61" height="60" fill="none" viewBox="0 0 61 60"><path stroke="url(#paint0_linear_144_926)" stroke-width="2.5" d="M39.8865 30.3697C39.8865 31.3851 39.112 32.5816 37.2448 33.597C35.4256 34.5863 32.827 35.2368 29.8883 35.2368C26.9495 35.2368 24.3509 34.5863 22.5318 33.597C20.6645 32.5816 19.8901 31.3851 19.8901 30.3697C19.8901 29.3543 20.6645 28.1579 22.5318 27.1424C24.3509 26.1532 26.9495 25.5027 29.8883 25.5027C32.827 25.5027 35.4256 26.1532 37.2448 27.1424C39.112 28.1579 39.8865 29.3543 39.8865 30.3697Z"/><path stroke="url(#paint1_linear_144_926)" stroke-width="2.5" d="M30.0916 40.2027C29.0762 40.2027 27.8798 39.4282 26.8643 37.561C25.8751 35.7418 25.2246 33.1432 25.2246 30.2045C25.2246 27.2657 25.8751 24.6671 26.8643 22.848C27.8798 20.9808 29.0763 20.2063 30.0916 20.2063C31.107 20.2063 32.3035 20.9808 33.3189 22.848C34.3082 24.6671 34.9587 27.2657 34.9587 30.2045C34.9587 33.1432 34.3082 35.7418 33.3189 37.561C32.3035 39.4282 31.107 40.2027 30.0916 40.2027Z"/><path stroke="url(#paint2_linear_144_926)" stroke-width="2" d="M30.1231 32.2192C31.0649 32.2192 31.8283 31.4557 31.8283 30.514C31.8283 29.5723 31.0649 28.8088 30.1231 28.8088C29.1814 28.8088 28.418 29.5723 28.418 30.514C28.418 31.4557 29.1814 32.2192 30.1231 32.2192Z"/><path stroke="url(#paint3_linear_144_926)" stroke-width="3.5" d="M42.7327 15.4275H17.2871C16.0445 15.4275 15.0371 16.4348 15.0371 17.6775V43.1231C15.0371 44.3657 16.0445 45.3731 17.2871 45.3731H42.7327C43.9753 45.3731 44.9827 44.3657 44.9827 43.1231V17.6775C44.9827 16.4348 43.9753 15.4275 42.7327 15.4275Z"/><path fill="url(#paint4_linear_144_926)" d="M34.3481 56.9988C34.3481 57.9653 35.1316 58.7488 36.0981 58.7488C37.0646 58.7488 37.8481 57.9653 37.8481 56.9988H34.3481ZM34.3481 49.6211V56.9988H37.8481V49.6211H34.3481Z"/><path fill="url(#paint5_linear_144_926)" d="M28.127 56.9988C28.127 57.9653 28.9105 58.7488 29.877 58.7488C30.8435 58.7488 31.627 57.9653 31.627 56.9988H28.127ZM28.127 49.6211V56.9988H31.627V49.6211H28.127Z"/><path fill="url(#paint6_linear_144_926)" d="M21.9058 56.9988C21.9058 57.9653 22.6893 58.7488 23.6558 58.7488C24.6223 58.7488 25.4058 57.9653 25.4058 56.9988H21.9058ZM21.9058 49.6211V56.9988H25.4058V49.6211H21.9058Z"/><path fill="url(#paint7_linear_144_926)" d="M56.6096 37.5481C57.5761 37.5481 58.3596 36.7646 58.3596 35.7981C58.3596 34.8316 57.5761 34.0481 56.6096 34.0481V37.5481ZM49.2319 37.5481H56.6096V34.0481H49.2319V37.5481Z"/><path fill="url(#paint8_linear_144_926)" d="M56.6096 31.3267C57.5761 31.3267 58.3596 30.5432 58.3596 29.5767C58.3596 28.6102 57.5761 27.8267 56.6096 27.8267V31.3267ZM49.2319 31.3267H56.6096V27.8267H49.2319V31.3267Z"/><path fill="url(#paint9_linear_144_926)" d="M56.6096 25.1052C57.5761 25.1052 58.3596 24.3217 58.3596 23.3552C58.3596 22.3887 57.5761 21.6052 56.6096 21.6052V25.1052ZM49.2319 25.1052H56.6096V21.6052H49.2319V25.1052Z"/><path fill="url(#paint10_linear_144_926)" d="M3.60986 21.605C2.64336 21.605 1.85986 22.3885 1.85986 23.355C1.85986 24.3215 2.64336 25.105 3.60986 25.105V21.605ZM10.9876 21.605H3.60986V25.105H10.9876V21.605Z"/><path fill="url(#paint11_linear_144_926)" d="M3.60986 27.8264C2.64336 27.8264 1.85986 28.6099 1.85986 29.5764C1.85986 30.5429 2.64336 31.3264 3.60986 31.3264V27.8264ZM10.9876 27.8264H3.60986V31.3264H10.9876V27.8264Z"/><path fill="url(#paint12_linear_144_926)" d="M3.60986 34.0471C2.64336 34.0471 1.85986 34.8306 1.85986 35.7971C1.85986 36.7636 2.64336 37.5471 3.60986 37.5471V34.0471ZM10.9876 34.0471H3.60986V37.5471H10.9876V34.0471Z"/><path fill="url(#paint13_linear_144_926)" d="M37.8481 4C37.8481 3.0335 37.0646 2.25 36.0981 2.25C35.1316 2.25 34.3481 3.0335 34.3481 4H37.8481ZM37.8481 11.3777V4H34.3481V11.3777H37.8481Z"/><path fill="url(#paint14_linear_144_926)" d="M31.627 4C31.627 3.0335 30.8435 2.25 29.877 2.25C28.9105 2.25 28.127 3.0335 28.127 4H31.627ZM31.627 11.3777V4H28.127V11.3777H31.627Z"/><path fill="url(#paint15_linear_144_926)" d="M25.4058 4C25.4058 3.0335 24.6223 2.25 23.6558 2.25C22.6893 2.25 21.9058 3.0335 21.9058 4H25.4058ZM25.4058 11.3777V4H21.9058V11.3777H25.4058Z"/><defs><linearGradient id="paint0_linear_144_926" x1="29.888" x2="29.888" y1="24.253" y2="36.487" gradientUnits="userSpaceOnUse"><stop stop-color="#238DE1"/><stop offset="1" stop-color="#49CFA3"/></linearGradient><linearGradient id="paint1_linear_144_926" x1="36.209" x2="23.975" y1="30.204" y2="30.204" gradientUnits="userSpaceOnUse"><stop stop-color="#228BE3"/><stop offset="1" stop-color="#47CFA4"/></linearGradient><linearGradient id="paint2_linear_144_926" x1="30.123" x2="30.123" y1="27.809" y2="33.219" gradientUnits="userSpaceOnUse"><stop stop-color="#218AE4"/><stop offset="1" stop-color="#48CFA3"/></linearGradient><linearGradient id="paint3_linear_144_926" x1="13.978" x2="44.393" y1="14.714" y2="46.857" gradientUnits="userSpaceOnUse"><stop stop-color="#228BE2"/><stop offset="1" stop-color="#4AD0A2"/></linearGradient><linearGradient id="paint4_linear_144_926" x1="38.675" x2="36.16" y1="55.271" y2="52.385" gradientUnits="userSpaceOnUse"><stop stop-color="#228CE2"/><stop offset="1" stop-color="#48CFA3"/></linearGradient><linearGradient id="paint5_linear_144_926" x1="32.454" x2="29.939" y1="55.271" y2="52.385" gradientUnits="userSpaceOnUse"><stop stop-color="#228CE2"/><stop offset="1" stop-color="#48CFA3"/></linearGradient><linearGradient id="paint6_linear_144_926" x1="26.233" x2="23.717" y1="55.271" y2="52.385" gradientUnits="userSpaceOnUse"><stop stop-color="#228CE2"/><stop offset="1" stop-color="#48CFA3"/></linearGradient><linearGradient id="paint7_linear_144_926" x1="54.882" x2="51.996" y1="33.221" y2="35.736" gradientUnits="userSpaceOnUse"><stop stop-color="#228DE1"/><stop offset="1" stop-color="#48CFA3"/></linearGradient><linearGradient id="paint8_linear_144_926" x1="54.882" x2="51.996" y1="27" y2="29.515" gradientUnits="userSpaceOnUse"><stop stop-color="#228DE1"/><stop offset="1" stop-color="#48CFA3"/></linearGradient><linearGradient id="paint9_linear_144_926" x1="54.882" x2="51.996" y1="20.779" y2="23.294" gradientUnits="userSpaceOnUse"><stop stop-color="#2492DD"/><stop offset="1" stop-color="#47CFA4"/></linearGradient><linearGradient id="paint10_linear_144_926" x1="5.337" x2="8.224" y1="25.932" y2="23.417" gradientUnits="userSpaceOnUse"><stop stop-color="#228CE2"/><stop offset="1" stop-color="#41CCA7"/></linearGradient><linearGradient id="paint11_linear_144_926" x1="5.337" x2="8.224" y1="32.153" y2="29.638" gradientUnits="userSpaceOnUse"><stop stop-color="#228CE2"/><stop offset="1" stop-color="#41CCA7"/></linearGradient><linearGradient id="paint12_linear_144_926" x1="5.337" x2="8.224" y1="38.374" y2="35.859" gradientUnits="userSpaceOnUse"><stop stop-color="#228CE2"/><stop offset="1" stop-color="#41CCA7"/></linearGradient><linearGradient id="paint13_linear_144_926" x1="33.522" x2="36.036" y1="5.728" y2="8.614" gradientUnits="userSpaceOnUse"><stop stop-color="#228DE1"/><stop offset="1" stop-color="#4AD0A2"/></linearGradient><linearGradient id="paint14_linear_144_926" x1="27.3" x2="29.815" y1="5.728" y2="8.614" gradientUnits="userSpaceOnUse"><stop stop-color="#228DE1"/><stop offset="1" stop-color="#4AD0A2"/></linearGradient><linearGradient id="paint15_linear_144_926" x1="21.079" x2="23.594" y1="5.728" y2="8.614" gradientUnits="userSpaceOnUse"><stop stop-color="#228DE1"/><stop offset="1" stop-color="#4AD0A2"/></linearGradient></defs></svg>